PathFileType	4	(X/Y/Z)	C:\Users\Basilio\Documents\Thesis Gigler\squatting_fais\c3dfiles\044\SLS_back_pre1\markers_experimental.trc
DataRate	CameraRate	NumFrames	NumMarkers	Units	OrigDataRate	OrigDataStartFrame	OrigNumFrames
200.000000	200.000000	4	68	mm	200.000000	1080	1728
Frame#	Time	FHD			LBHD			RBHD			C7			T10			CLAV			LRAD			LRFIN			RSHO			RUPA1			RMUPA			RDUPA			RLEP			RMEP			RUL			LASI			RASI			USACR			LSACR			RSACR			LTHI1			LTHI2			LTHI3			LTHI4			LLFC			LMFC			LTIB1			LTIB2			LTIB3			LTIB4			LLMAL			LMMAL			LHEE			LMT1			LMT2			LMT5			RTHI			RTHI2			RTHI3			RTHI4			RLFC			RMFC			RTIB1			RTIB2			RTIB3			RTIB4			RLMAL			RMMAL			RHEE			RMT1			RMT2			RMT5			RUFIN			LSHO			LUUPA			LMUPA			LDUPA			LLEP			LMEP			LUL			*60			*61			*62			*63			*64			*65			*66			*67			
		X1	Y1	Z1	X2	Y2	Z2	X3	Y3	Z3	X4	Y4	Z4	X5	Y5	Z5	X6	Y6	Z6	X7	Y7	Z7	X8	Y8	Z8	X9	Y9	Z9	X10	Y10	Z10	X11	Y11	Z11	X12	Y12	Z12	X13	Y13	Z13	X14	Y14	Z14	X15	Y15	Z15	X16	Y16	Z16	X17	Y17	Z17	X18	Y18	Z18	X19	Y19	Z19	X20	Y20	Z20	X21	Y21	Z21	X22	Y22	Z22	X23	Y23	Z23	X24	Y24	Z24	X25	Y25	Z25	X26	Y26	Z26	X27	Y27	Z27	X28	Y28	Z28	X29	Y29	Z29	X30	Y30	Z30	X31	Y31	Z31	X32	Y32	Z32	X33	Y33	Z33	X34	Y34	Z34	X35	Y35	Z35	X36	Y36	Z36	X37	Y37	Z37	X38	Y38	Z38	X39	Y39	Z39	X40	Y40	Z40	X41	Y41	Z41	X42	Y42	Z42	X43	Y43	Z43	X44	Y44	Z44	X45	Y45	Z45	X46	Y46	Z46	X47	Y47	Z47	X48	Y48	Z48	X49	Y49	Z49	X50	Y50	Z50	X51	Y51	Z51	X52	Y52	Z52	X53	Y53	Z53	X54	Y54	Z54	X55	Y55	Z55	X56	Y56	Z56	X57	Y57	Z57	X58	Y58	Z58	X59	Y59	Z59	X60	Y60	Z60	X61	Y61	Z61	X62	Y62	Z62	X63	Y63	Z63	X64	Y64	Z64	X65	Y65	Z65	X66	Y66	Z66	X67	Y67	Z67	X68	Y68	Z68	

1081	5.4	-25.60599899291993	1474.614868164063	-1097.930786132813	-162.494873046875	1446.316040039063	-1170.119018554688	-202.8468933105469	1438.480712890625	-1008.568969726563	-245.2359313964844	1296.769165039063	-1084.49609375	-381.0364074707032	1047.343872070313	-1007.663513183594	-127.8742828369141	1211.357055664063	-1080.65869140625	352.9541625976563	1240.305541992188	-1148.96923828125	374.0773925781251	1307.765747070313	-1099.586303710938	-154.6440582275391	1299.093994140625	-936.494323730469	-17.93494987487793	1289.118408203125	-822.1070556640627	14.89762783050537	1295.931030273438	-859.9607543945315	51.05242919921876	1287.239135742188	-812.9487304687502	113.1005096435547	1288.543090820313	-818.549255371094	111.1143798828125	1205.186767578125	-820.7908935546877	363.9635314941407	1291.898681640625	-950.3544921875002	-334.8062133789063	810.291687011719	-1098.017822265625	-318.8821716308594	784.7810668945315	-881.287048339844	-454.3638610839845	915.2421875000002	-964.0786743164065	-481.3015136718751	891.9102783203127	-988.9261474609377	-467.9414062500001	888.3469238281252	-934.1475219726565	-340.6690979003907	651.7821044921876	-1177.959350585938	-259.8925170898438	623.6987304687501	-1183.676147460938	-228.0543365478516	657.0833740234376	-1175.843505859375	-239.2792663574219	566.0701293945314	-1175.514038085938	-128.5624694824219	464.153778076172	-1153.683227539063	-122.6246032714844	472.7253417968751	-1037.594604492188	-156.2924041748047	309.1416625976563	-1049.35498046875	-200.1193237304688	264.2915954589844	-1111.594970703125	-171.4593353271485	256.5801696777344	-1072.567260742188	-221.9065551757813	203.0448150634766	-1030.764038085938	-319.6495361328126	112.6310501098633	-1065.46484375	-296.2592468261719	132.07568359375	-981.7998046875002	-387.562469482422	96.9572677612305	-1011.134765625	-180.6351623535157	59.5925636291504	-987.021911621094	-179.7902069091797	58.52561569213869	-1034.122924804688	-216.8623504638672	43.23533248901368	-1079.531860351563	-379.8517456054688	544.7864379882814	-782.7803344726565	-323.3370361328126	506.0429687500001	-779.0188598632815	-293.4203186035157	515.7469482421876	-789.6484375000002	-325.6290588378907	420.7377014160157	-787.665954589844	-328.5797729492188	343.9858703613282	-800.066345214844	-342.7487792968751	331.8279418945313	-916.4070434570315	-424.6408996582032	256.4272460937501	-824.471130371094	-511.2377319335939	312.9000854492188	-784.0249023437502	-507.5869445800782	269.1154479980469	-797.4576416015627	-554.1400756835939	246.5175781250001	-824.0000610351565	-718.3662719726564	277.7219848632813	-813.0927734375002	-704.0230102539064	255.9618835449219	-896.429870605469	-758.0966796875001	326.3423767089844	-867.930114746094	-745.3275146484376	114.8214111328125	-880.2742919921877	-751.8341064453126	108.0265502929688	-843.6844482421877	-783.3846435546877	145.4733428955078	-797.7534179687502	334.6139831542969	1273.245971679688	-1063.9521484375	-162.9339447021485	1283.921508789063	-1219.588623046875	-16.6384449005127	1256.1103515625	-1325.483642578125	14.10635757446289	1269.388671875	-1287.38427734375	51.4753875732422	1252.641845703125	-1331.173950195313	112.1055984497071	1253.893676757813	-1324.670288085938	107.5022659301758	1177.38818359375	-1309.375122070313	366.3459777832032	1286.1044921875	-1201.639892578125	nan	nan	nan	nan	nan	nan	nan	nan	nan	nan	nan	nan	nan	nan	nan	nan	nan	nan	nan	nan	nan	nan	nan	nan	
1082	5.405	-25.53431701660157	1474.298828125	-1097.9921875	-162.3165130615235	1446.079833984375	-1170.07568359375	-202.7665557861329	1437.859252929688	-1008.309692382813	-245.2180938720704	1296.697631835938	-1084.3837890625	-381.0119323730469	1047.21142578125	-1007.479614257813	-127.6689224243164	1211.1953125	-1080.660888671875	353.1051940917969	1240.119995117188	-1149.10546875	374.0387573242188	1307.699462890625	-1099.732543945313	-154.4035186767578	1298.891235351563	-936.5103759765627	-17.59928703308106	1288.694702148438	-822.0281982421877	15.16194820404053	1295.9111328125	-859.9785766601565	51.20543670654298	1286.873657226563	-812.7029418945315	113.2453079223633	1288.38525390625	-818.3421020507815	111.2246017456055	1205.0107421875	-820.7180786132815	364.0522155761719	1291.780883789063	-950.4063720703127	-334.6342163085938	810.5067138671877	-1097.942016601563	-318.7700195312501	784.622253417969	-881.2329101562502	-454.4371643066407	915.1140136718752	-963.9067382812502	-481.2184143066407	891.8643188476565	-988.8403320312502	-467.8489990234376	888.2047119140627	-933.959655761719	-340.6719970703126	651.7465820312501	-1177.868530273438	-259.8973999023438	623.7249755859376	-1183.64990234375	-227.9567413330079	657.0623779296876	-1175.9345703125	-239.3008880615235	566.0007324218751	-1175.558471679688	-128.5259094238282	464.1453552246095	-1153.75830078125	-122.5985183715821	472.7485351562501	-1037.69140625	-156.231185913086	308.9821777343751	-1049.403930664063	-200.1268615722657	264.3744506835938	-1111.643310546875	-171.3624572753907	256.5696411132813	-1072.684448242188	-221.8297729492188	203.1305236816407	-1030.8798828125	-319.6686096191407	112.6185684204102	-1065.492797851563	-296.2653808593751	132.1871490478516	-981.906433105469	-387.586395263672	96.9364929199219	-1011.117492675781	-180.6591491699219	59.21761703491212	-987.240661621094	-179.776840209961	58.51889801025392	-1034.136352539063	-216.8283996582032	43.13632965087891	-1079.637084960938	-379.5592651367188	544.5531616210939	-782.7766113281252	-323.1687011718751	505.8951721191407	-779.0726318359377	-293.2721252441407	515.5159912109376	-789.5839843750002	-325.3840026855469	420.5534057617189	-787.6126708984377	-328.2871093750001	343.7856140136719	-800.0755615234377	-342.3572082519532	331.6438293457032	-916.4267578125002	-424.3786926269532	256.1918945312501	-824.3193359375002	-510.8764648437501	312.7916564941407	-784.0615234375002	-507.2692260742189	268.9280395507813	-797.5316162109377	-553.8518676757814	246.3525848388672	-824.0209960937502	-718.0246582031251	277.6068115234376	-812.992858886719	-704.0116577148439	255.601058959961	-896.4505004882815	-757.8441772460939	326.2324829101563	-867.7839355468752	-745.2247924804689	114.7684555053711	-880.1223144531252	-751.7268066406251	108.0690841674805	-843.4725341796877	-783.254821777344	145.453842163086	-797.6220703125002	341.2703552246094	1273.6865234375	-1065.090576171875	-162.9403686523438	1283.646850585938	-1219.577392578125	-16.66925811767578	1255.944213867188	-1325.4580078125	14.27060222625733	1269.169677734375	-1287.435302734375	51.39066696166994	1252.404663085938	-1331.241821289063	110.8347320556641	1254.653930664063	-1324.452392578125	107.503646850586	1177.1513671875	-1309.523681640625	366.3903198242188	1286.046142578125	-1201.779052734375	nan	nan	nan	nan	nan	nan	nan	nan	nan	nan	nan	nan	nan	nan	nan	nan	nan	nan	nan	nan	nan	nan	nan	nan	
1083	5.41	-25.28110885620118	1473.985595703125	-1098.064697265625	-162.3484039306641	1445.797729492188	-1170.017578125	-202.7335815429688	1437.70556640625	-1008.313171386719	-245.0657043457032	1296.5009765625	-1084.348510742188	-380.9232788085938	1047.097045898438	-1007.392761230469	-127.7384796142578	1210.9365234375	-1080.595336914063	353.2313842773438	1240.053588867188	-1149.260009765625	374.0784606933594	1307.500610351563	-1100.928588867188	-154.3305969238282	1298.748779296875	-936.4212036132815	-17.73716545104981	1288.970825195313	-822.372985839844	15.3844804763794	1295.72509765625	-860.0397949218752	51.37932205200197	1286.7998046875	-812.6755981445315	113.6646347045899	1288.1513671875	-818.393249511719	111.4187469482422	1204.76318359375	-820.6949462890627	364.0936279296876	1291.638061523438	-950.4927368164065	-334.7024230957032	810.2469482421877	-1097.8466796875	-318.7147216796876	784.406677246094	-881.0975341796877	-454.3567810058595	914.967224121094	-963.8843994140627	-481.1924438476564	891.9040527343752	-988.7085571289065	-467.784637451172	888.0802001953127	-933.8093261718752	-340.7832031250001	651.7362670898439	-1177.847412109375	-259.9686584472657	623.6853637695314	-1183.661376953125	-228.0748443603516	657.0780029296876	-1175.92431640625	-239.3714904785157	566.0457763671876	-1175.557861328125	-128.4909820556641	464.145965576172	-1153.850708007813	-122.468864440918	472.7118225097657	-1037.777954101563	-156.2498321533203	308.8979797363282	-1049.619506835938	-200.1401062011719	264.3831176757813	-1111.732299804688	-171.3201904296875	256.6683044433594	-1072.842407226563	-221.8528900146485	203.1159667968751	-1030.916748046875	-319.6484069824219	112.6231002807617	-1065.549438476563	-296.2248840332032	132.1268157958985	-981.9190063476565	-387.5555419921876	96.90573883056643	-1011.183044433594	-180.6189117431641	59.5477867126465	-987.042663574219	-179.8148193359375	58.51172256469728	-1034.0888671875	-216.8613891601563	43.18799209594727	-1079.622924804688	-379.4703674316407	544.4873657226564	-782.8323974609377	-322.9746093750001	505.599334716797	-778.729919433594	-293.0956115722657	515.3511352539064	-789.675720214844	-325.2659301757813	420.6532287597657	-788.052917480469	-328.0322875976563	343.6369018554688	-800.059997558594	-342.0320739746094	331.6581726074219	-916.6226806640627	-424.2520141601564	256.2099914550782	-824.2453613281252	-510.7002258300782	312.7299194335938	-784.033386230469	-507.0458068847657	268.7706604003907	-797.521423339844	-553.6093139648439	246.2893829345704	-823.9656982421877	-717.8692626953126	277.6051635742188	-812.8663330078127	-703.6839599609376	255.5872650146485	-896.2646484375002	-757.5822143554689	326.2239379882813	-867.691345214844	-745.1228027343751	114.7405395507813	-879.9600830078127	-751.6074218750001	108.0577545166016	-843.365417480469	-783.083923339844	145.1963958740235	-797.5305175781252	348.8888854980469	1274.218994140625	-1066.366943359375	-162.8917083740235	1283.522338867188	-1219.542724609375	-16.66283035278321	1255.79541015625	-1325.4873046875	14.24146556854248	1269.037841796875	-1287.463500976563	51.4719696044922	1252.30517578125	-1331.343139648438	110.7892303466797	1254.561645507813	-1324.558227539063	107.5881500244141	1177.005126953125	-1309.708740234375	366.4365234375001	1285.992797851563	-1201.909912109375	nan	nan	nan	nan	nan	nan	nan	nan	nan	nan	nan	nan	nan	nan	nan	nan	nan	nan	nan	nan	nan	nan	nan	nan	
1084	5.415	-25.21588516235352	1473.772094726563	-1098.093627929688	-162.0724182128907	1446.2099609375	-1170.062622070313	-202.5614624023438	1437.455688476563	-1008.278015136719	-244.9080657958985	1296.357421875	-1084.324584960938	-380.8050231933594	1047.057495117188	-1007.254150390625	-127.5408401489258	1210.799560546875	-1080.597045898438	353.2858886718751	1239.925537109375	-1149.409423828125	374.1075134277344	1307.451171875	-1101.029418945313	-154.3572082519532	1298.609497070313	-936.2788085937502	-17.58662986755371	1288.804077148438	-822.3887329101565	15.47287368774414	1295.466796875	-860.0329589843752	51.5615577697754	1286.657470703125	-812.7300415039065	113.7931671142578	1288.055053710938	-818.4139404296877	111.5858688354492	1204.660522460938	-820.7534179687502	364.1280517578126	1291.568237304688	-950.6271972656252	-334.9065856933594	809.9941406250002	-1097.805541992188	-318.6531677246094	784.133972167969	-881.0286865234377	-454.306610107422	914.891052246094	-963.694763183594	-481.1587524414064	891.957702636719	-988.5296630859377	-467.6654357910157	888.1638793945315	-933.7475585937502	-340.8350830078126	651.7534179687501	-1177.8037109375	-260.0278015136719	623.6696777343751	-1183.657348632813	-228.0770111083985	657.1085815429689	-1175.989501953125	-240.0869750976563	566.6556396484376	-1175.543090820313	-128.5000762939453	464.141082763672	-1153.969970703125	-122.4443740844727	472.7724914550782	-1037.849609375	-156.2430877685547	309.0092468261719	-1049.7626953125	-200.3191375732422	264.2115478515626	-1112.046020507813	-171.3969879150391	256.6864929199219	-1072.962768554688	-221.8295593261719	203.1651306152344	-1031.072509765625	-319.6481628417969	112.5842514038086	-1065.597045898438	-296.2678833007813	132.2553253173828	-982.055114746094	-387.5750732421876	96.98113250732425	-1011.190063476563	-180.6366729736328	59.57410049438478	-987.071960449219	-179.6472625732422	58.44885253906251	-1034.069091796875	-216.8037414550782	43.34133529663087	-1079.584228515625	-379.1484985351563	544.3140258789064	-782.7305297851565	-322.8638305664063	505.5381774902345	-778.670593261719	-292.8266601562501	515.2910766601564	-789.708923339844	-325.0726623535157	420.5064697265626	-788.0452880859377	-327.9108581542969	343.5346984863282	-800.067565917969	-341.9925842285157	331.5889892578126	-916.6561279296877	-424.1137084960939	256.0575561523438	-824.1031494140627	-510.5628051757814	312.7360534667969	-784.0042114257815	-506.7775268554689	268.6453247070313	-797.3983154296877	-553.2157592773439	246.293685913086	-824.1702880859377	-717.4215087890626	277.5366516113282	-812.871276855469	-703.3062744140626	255.9309082031251	-896.0626220703127	-757.3302001953126	326.1510925292969	-867.5809326171877	-745.0147094726564	114.7184829711914	-879.7945556640627	-751.1928100585939	108.2739715576172	-843.5476684570315	-782.9003906250002	145.1400909423828	-797.4575805664065	357.2502746582032	1274.832275390625	-1067.750366210938	-162.8837585449219	1283.357788085938	-1219.412963867188	-16.74840927124024	1255.630615234375	-1325.480346679688	14.23629951477051	1268.927734375	-1287.50244140625	51.53733444213869	1252.173583984375	-1331.4443359375	110.840560913086	1254.472534179688	-1324.65087890625	107.5730667114258	1176.777954101563	-1309.68212890625	366.4462890625001	1285.859130859375	-1202.016235351563	nan	nan	nan	nan	nan	nan	nan	nan	nan	nan	nan	nan	nan	nan	nan	nan	nan	nan	nan	nan	nan	nan	nan	nan	
